<svg width="40" height="40" viewBox="0 0 40 40" fill="none" xmlns="http://www.w3.org/2000/svg">
<rect x="2" y="2" width="36" height="36" rx="2" fill="white"/>
<path d="M34.9998 19.1087V20.9962L26.8838 25.0542V23.7168L32.4778 20.9199V20.6692L32.7348 20.5432C32.9738 20.4299 33.1941 20.3356 33.3954 20.2601C33.6093 20.1721 33.7666 20.1154 33.8673 20.0902C33.754 20.0651 33.5905 20.0084 33.3766 19.9203C33.1627 19.8322 32.9487 19.7379 32.7348 19.6373L32.4778 19.5104V19.1127L26.8838 16.3158V15.0508L34.9998 19.1087Z" fill="#FF5942"/>
<path d="M5 19.1087V20.9962L13.116 25.0542V23.7168L7.52195 20.9199V20.6692L7.26498 20.5432C7.02591 20.4299 6.80569 20.3356 6.60437 20.2601C6.39046 20.1721 6.23315 20.1154 6.13249 20.0902C6.24573 20.0651 6.40929 20.0084 6.62319 19.9203C6.8371 19.8322 7.05107 19.7379 7.26498 19.6373L7.52195 19.5104V19.1127L13.116 16.3158V15.0508L5 19.1087Z" fill="#FF5942"/>
<path d="M26.3845 20.0001C26.3845 23.5209 23.5303 26.3751 20.0094 26.3751C16.4885 26.3751 13.6343 23.5209 13.6343 20.0001C13.6343 16.4792 16.4885 13.625 20.0094 13.625C23.5303 13.625 26.3845 16.4792 26.3845 20.0001Z" fill="#B392F0"/>
<path d="M25.0794 20.0001C25.0794 22.8001 22.8095 25.07 20.0094 25.07C17.2093 25.07 14.9394 22.8001 14.9394 20.0001C14.9394 17.2 17.2093 14.9301 20.0094 14.9301C22.8095 14.9301 25.0794 17.2 25.0794 20.0001Z" fill="white"/>
<path d="M22.9711 19.8997C22.9711 21.5908 21.6001 22.9617 19.909 22.9617C18.2179 22.9617 16.8469 21.5908 16.8469 19.8997C16.8469 18.2086 18.2179 16.8376 19.909 16.8376C21.6001 16.8376 22.9711 18.2086 22.9711 19.8997Z" fill="#FF5942"/>
<path d="M23.5734 17.9922C23.5734 19.0734 22.6969 19.9499 21.6157 19.9499C20.5345 19.9499 19.658 19.0734 19.658 17.9922C19.658 16.911 20.5345 16.0345 21.6157 16.0345C22.6969 16.0345 23.5734 16.911 23.5734 17.9922Z" fill="white"/>
<path d="M18.5537 22.1084C18.5537 22.746 18.0368 23.2629 17.3991 23.2629C16.7615 23.2629 16.2446 22.746 16.2446 22.1084C16.2446 21.4707 16.7615 20.9538 17.3991 20.9538C18.0368 20.9538 18.5537 21.4707 18.5537 22.1084Z" fill="white"/>
</svg>
