<svg width="40" height="40" viewBox="0 0 40 40" fill="none" xmlns="http://www.w3.org/2000/svg">
<rect x="2" y="2" width="36" height="36" rx="2" fill="white"/>
<g clip-path="url(#clip0_40001313_7412)">
<path d="M14.333 25.7895L12.4668 22.1593H12.0196L10.6909 25.7895H5L8.53426 16.1752L6.56502 14.227H19.1867C19.9242 14.227 20.5378 14.5444 20.9615 15.1454C20.9768 15.1668 20.9917 15.1886 21.0059 15.2103C21.3231 14.8926 21.7017 14.6411 22.1191 14.4708C22.5365 14.3005 22.9842 14.2148 23.4357 14.2189H35L33.9265 17.1585H33.0177L32.5202 18.5209H31.2354C31.3061 18.5961 31.3719 18.6758 31.4321 18.7594C31.8659 19.3629 31.9577 20.0476 31.699 20.7404L30.6569 23.5826C30.4258 24.2389 29.9874 24.8044 29.4065 25.1956C28.832 25.5836 28.1509 25.7879 27.4552 25.781H20.1452L20.1497 25.7891L14.333 25.7895Z" fill="white"/>
<path d="M34.5494 14.5314L33.7025 16.8458H32.7959L32.298 18.2082H30.088C30.5251 18.3049 30.895 18.554 31.1749 18.9412C31.5448 19.4558 31.6228 20.0408 31.4026 20.6318L30.3575 23.4765C30.1484 24.0708 29.7518 24.5829 29.2262 24.9375C28.7041 25.2899 28.0853 25.4753 27.4533 25.4686H19.6144L19.6188 25.4768H14.5266L12.6604 21.8465H11.7975L10.4687 25.4768H5.45117L8.90034 16.0939L7.3286 14.5395H19.1866C19.8178 14.5395 20.3403 14.8112 20.7024 15.3239C20.8001 15.4625 20.8791 15.6132 20.9375 15.772C21.1358 15.5006 21.3793 15.2644 21.6575 15.0736C22.1788 14.7145 22.8003 14.525 23.4356 14.5314H34.5494Z" fill="black"/>
<path d="M22.5183 19.8496H29.6544C29.7208 19.8496 29.7327 19.8496 29.7842 19.9201C29.7989 19.9377 29.8101 19.9578 29.8171 19.9795C29.8158 20.0022 29.8102 20.0245 29.8007 20.0452L28.7556 22.9C28.6526 23.1827 28.4969 23.3857 28.2659 23.5415C28.0271 23.7016 27.7437 23.7842 27.4552 23.7777H18.0341L16.7199 21.2197H16.9894C17.4923 21.2236 17.9839 21.0718 18.3952 20.7856C18.8066 20.4994 19.1171 20.0931 19.2834 19.6237L20.3284 16.7915C20.4755 16.3951 20.4278 16.0248 20.1855 15.6808C19.9431 15.3368 19.6108 15.1646 19.1885 15.1641H8.85524L9.63234 15.9322L6.35449 24.85H10.0254L11.3541 21.2197H13.0472L14.9134 24.85H18.5861L18.5816 24.8419H27.4552C27.9599 24.8487 28.4545 24.7012 28.8713 24.4196C29.2882 24.1393 29.6024 23.7333 29.7671 23.2621L30.8122 20.4136C30.9615 20.0174 30.9117 19.6472 30.6629 19.3029C30.414 18.9587 30.079 18.7864 29.6577 18.7862H24.0534L24.2341 18.2945L23.513 17.5814H31.8543L32.2424 16.5183H23.7429L22.5183 19.8496ZM12.0345 19.1232L12.341 18.2982L11.6243 17.5895H16.5441L15.9734 19.1232H12.0345Z" fill="white"/>
<path d="M23.4362 15.1564C22.9303 15.1501 22.435 15.3006 22.0201 15.5868C21.6047 15.8718 21.2916 16.28 21.1262 16.7525L20.0811 19.5847C19.9335 19.9811 19.9833 20.3516 20.2304 20.6961C20.4775 21.0406 20.8125 21.2129 21.2355 21.2129H26.8383L26.3953 22.4184H19.0371L18.6489 23.4814H27.1489L28.3724 20.1498H21.2363C21.1691 20.1498 21.1571 20.1498 21.1064 20.0797C21.0917 20.0618 21.0806 20.0414 21.0735 20.0195C21.075 19.9962 21.0806 19.9734 21.09 19.952L22.135 17.1179C22.2403 16.8296 22.3982 16.6218 22.6337 16.4602C22.868 16.2975 23.1489 16.2135 23.4351 16.2206H33.2604L33.6486 15.1572L23.4362 15.1564Z" fill="url(#paint0_linear_40001313_7412)"/>
</g>
<defs>
<linearGradient id="paint0_linear_40001313_7412" x1="18.6489" y1="19.3186" x2="33.6486" y2="19.3186" gradientUnits="userSpaceOnUse">
<stop offset="0.13" stop-color="#578CF7"/>
<stop offset="1" stop-color="#0D5CFD"/>
</linearGradient>
<clipPath id="clip0_40001313_7412">
<rect width="30" height="11.5625" fill="white" transform="translate(5 14.2188)"/>
</clipPath>
</defs>
</svg>
